<svg viewBox="0 0 1200 630" xmlns="http://www.w3.org/2000/svg">
  <!-- Cream background -->
  <rect width="1200" height="630" fill="#fffdf8"/>
  <!-- Friiiigo logo centred, scaled to ~600px wide -->
  <g transform="translate(300,215) scale(0.841)">
    <path d="M621.271 125.614C621.271 129.355 621.919 132.809 623.214 135.974C624.653 138.996 626.451 141.658 628.61 143.96C630.912 146.262 633.574 148.061 636.595 149.356C639.761 150.651 643.07 151.298 646.524 151.298C649.977 151.298 653.214 150.651 656.236 149.356C659.402 148.061 662.064 146.262 664.222 143.96C666.524 141.658 668.323 138.996 669.618 135.974C671.057 132.809 671.776 129.427 671.776 125.83C671.776 122.377 671.057 119.139 669.618 116.118C668.323 112.952 666.524 110.218 664.222 107.916C662.064 105.614 659.402 103.815 656.236 102.52C653.214 101.225 649.977 100.578 646.524 100.578C643.07 100.578 639.761 101.225 636.595 102.52C633.574 103.815 630.912 105.614 628.61 107.916C626.451 110.218 624.653 112.88 623.214 115.902C621.919 118.924 621.271 122.161 621.271 125.614ZM580.047 125.183C580.047 116.981 581.702 109.355 585.012 102.304C588.321 95.11 592.925 88.9228 598.825 83.7429C604.724 78.419 611.703 74.2463 619.76 71.2246C627.962 68.203 636.883 66.6921 646.524 66.6921C656.02 66.6921 664.797 68.203 672.855 71.2246C681.057 74.1024 688.107 78.2032 694.007 83.527C700.05 88.707 704.726 94.9662 708.036 102.304C711.345 109.499 713 117.485 713 126.262C713 135.039 711.273 143.097 707.82 150.435C704.511 157.629 699.906 163.889 694.007 169.212C688.107 174.392 680.985 178.421 672.639 181.299C664.438 184.177 655.517 185.616 645.876 185.616C636.38 185.616 627.602 184.177 619.545 181.299C611.487 178.421 604.508 174.32 598.609 168.997C592.853 163.673 588.321 157.342 585.012 150.003C581.702 142.521 580.047 134.248 580.047 125.183Z" fill="#082900"/>
    <path d="M470.131 125.614C470.131 129.211 470.779 132.593 472.074 135.758C473.369 138.78 475.095 141.442 477.254 143.744C479.556 146.046 482.218 147.845 485.24 149.14C488.405 150.435 491.786 151.082 495.384 151.082C498.837 151.082 502.075 150.435 505.096 149.14C508.262 147.845 510.924 146.046 513.082 143.744C515.384 141.442 517.183 138.78 518.478 135.758C519.917 132.593 520.636 129.283 520.636 125.83C520.636 122.233 519.917 118.923 518.478 115.902C517.183 112.88 515.384 110.218 513.082 107.916C510.78 105.614 508.046 103.815 504.88 102.52C501.859 101.225 498.693 100.578 495.384 100.578C491.93 100.578 488.693 101.297 485.671 102.736C482.65 104.031 479.988 105.83 477.685 108.132C475.383 110.29 473.513 112.88 472.074 115.902C470.779 118.923 470.131 122.161 470.131 125.614ZM557.759 70.7929V173.961C557.759 180.148 557.4 185.688 556.68 190.58C555.961 195.472 554.953 199.789 553.658 203.53C551.932 208.278 549.198 212.667 545.457 216.695C541.86 220.868 537.471 224.465 532.291 227.487C527.111 230.509 521.212 232.883 514.593 234.61C508.118 236.336 501.067 237.2 493.441 237.2C484.808 237.2 476.894 236.12 469.7 233.962C462.505 231.804 456.174 228.782 450.706 224.897C445.383 221.156 440.994 216.695 437.541 211.516C434.087 206.479 431.785 200.94 430.634 194.896H474.664C477.398 202.235 483.585 205.904 493.225 205.904C501.427 205.904 507.686 203.602 512.003 198.997C516.463 194.393 518.694 187.99 518.694 179.788V169.212C515.816 171.946 513.01 174.248 510.276 176.119C507.686 177.846 505.024 179.285 502.29 180.436C499.556 181.587 496.679 182.378 493.657 182.81C490.635 183.385 487.326 183.673 483.729 183.673C475.815 183.673 468.549 182.306 461.93 179.572C455.311 176.838 449.555 173.025 444.663 168.133C439.915 163.241 436.174 157.414 433.44 150.651C430.85 143.744 429.555 136.118 429.555 127.773C429.555 119.283 430.994 111.441 433.872 104.247C436.749 96.9086 440.634 90.5775 445.526 85.2536C450.563 79.7859 456.462 75.5412 463.225 72.5196C470.131 69.354 477.614 67.7712 485.671 67.7712C498.765 67.7712 509.773 72.6634 518.694 82.4478V70.7929H557.759Z" fill="#082900"/>
    <path d="M95.101 70.7929H134.167V88.9228C138.339 82.3039 143.447 77.2678 149.491 73.8145C155.534 70.2173 162.585 68.4187 170.642 68.4187C171.65 68.4187 172.729 68.4187 173.88 68.4187C175.175 68.4187 176.614 68.5626 178.196 68.8504V106.189C173.016 103.599 167.405 102.304 161.362 102.304C152.297 102.304 145.462 105.038 140.857 110.506C136.397 115.83 134.167 123.672 134.167 134.032V181.515H95.101V70.7929Z" fill="#082900"/>
    <path d="M53.0947 103.384V181.515H14.0291V103.384H0V70.793H14.0291V54.1739C14.0291 44.965 14.8924 37.6267 16.6191 32.159C18.058 27.5546 20.3602 23.3099 23.5257 19.4249C26.6913 15.396 30.3604 11.9427 34.5332 9.06495C38.8498 6.18718 43.4542 3.95691 48.3464 2.37415C53.2386 0.791381 58.0589 0 62.8072 0C66.1166 0 69.1383 0.359717 71.8721 1.07916C74.7499 1.7986 77.6277 2.80581 80.5054 4.10081V38.2023C77.9154 36.9073 75.4693 35.972 73.1671 35.3965C71.0088 34.677 68.7066 34.3173 66.2605 34.3173C64.6777 34.3173 63.023 34.6051 61.2964 35.1806C59.7136 35.6123 58.2028 36.6195 56.7639 38.2023C55.325 39.7851 54.3178 42.0873 53.7422 45.1089C53.3106 47.9867 53.0947 51.9436 53.0947 56.9797V70.793H80.5054V103.384H53.0947Z" fill="#082900"/>
    <path d="M297.02 70.6178V181.34H257.955V70.6178H297.02ZM255.365 28.0989C255.365 25.0772 255.94 22.2714 257.092 19.6814C258.243 16.9475 259.825 14.5734 261.84 12.5589C263.854 10.5445 266.156 8.96174 268.746 7.81064C271.48 6.65954 274.358 6.08398 277.38 6.08398C280.401 6.08398 283.207 6.65954 285.797 7.81064C288.531 8.96174 290.905 10.5445 292.92 12.5589C294.934 14.5734 296.517 16.9475 297.668 19.6814C298.819 22.2714 299.395 25.0772 299.395 28.0989C299.395 31.1205 298.819 33.9983 297.668 36.7322C296.517 39.3222 294.934 41.6244 292.92 43.6388C290.905 45.6532 288.531 47.236 285.797 48.3871C283.207 49.5382 280.401 50.1138 277.38 50.1138C274.358 50.1138 271.48 49.5382 268.746 48.3871C266.156 47.236 263.854 45.6532 261.84 43.6388C259.825 41.6244 258.243 39.3222 257.092 36.7322C255.94 33.9983 255.365 31.1205 255.365 28.0989Z" fill="#BE8B00"/>
    <path d="M407.856 70.6178V181.34H368.791V70.6178H407.856ZM366.201 28.0989C366.201 25.0772 366.776 22.2714 367.927 19.6814C369.078 16.9475 370.661 14.5734 372.676 12.5589C374.69 10.5445 376.992 8.96174 379.582 7.81064C382.316 6.65954 385.194 6.08398 388.215 6.08398C391.237 6.08398 394.043 6.65954 396.633 7.81064C399.367 8.96174 401.741 10.5445 403.755 12.5589C405.77 14.5734 407.353 16.9475 408.504 19.6814C409.655 22.2714 410.23 25.0772 410.23 28.0989C410.23 31.1205 409.655 33.9983 408.504 36.7322C407.353 39.3222 405.77 41.6244 403.755 43.6388C401.741 45.6532 399.367 47.236 396.633 48.3871C394.043 49.5382 391.237 50.1138 388.215 50.1138C385.194 50.1138 382.316 49.5382 379.582 48.3871C376.992 47.236 374.69 45.6532 372.676 43.6388C370.661 41.6244 369.078 39.3222 367.927 36.7322C366.776 33.9983 366.201 31.1205 366.201 28.0989Z" fill="#388FDC"/>
    <path d="M241.751 70.6178V181.34H202.685V70.6178H241.751ZM200.095 28.0989C200.095 25.0772 200.671 22.2714 201.822 19.6814C202.973 16.9475 204.556 14.5734 206.57 12.5589C208.585 10.5445 210.887 8.96174 213.477 7.81064C216.211 6.65954 219.089 6.08398 222.11 6.08398C225.132 6.08398 227.938 6.65954 230.528 7.81064C233.262 8.96174 235.636 10.5445 237.65 12.5589C239.665 14.5734 241.247 16.9475 242.399 19.6814C243.55 22.2714 244.125 25.0772 244.125 28.0989C244.125 31.1205 243.55 33.9983 242.399 36.7322C241.247 39.3222 239.665 41.6244 237.65 43.6388C235.636 45.6532 233.262 47.236 230.528 48.3871C227.938 49.5382 225.132 50.1138 222.11 50.1138C219.089 50.1138 216.211 49.5382 213.477 48.3871C210.887 47.236 208.585 45.6532 206.57 43.6388C204.556 41.6244 202.973 39.3222 201.822 36.7322C200.671 33.9983 200.095 31.1205 200.095 28.0989Z" fill="#E0343B"/>
    <path d="M352.587 70.6178V181.34H313.521V70.6178H352.587ZM310.931 28.0989C310.931 25.0772 311.507 22.2714 312.658 19.6814C313.809 16.9475 315.392 14.5734 317.406 12.5589C319.421 10.5445 321.723 8.96174 324.313 7.81064C327.047 6.65954 329.924 6.08398 332.946 6.08398C335.968 6.08398 338.774 6.65954 341.364 7.81064C344.097 8.96174 346.472 10.5445 348.486 12.5589C350.5 14.5734 352.083 16.9475 353.234 19.6814C354.385 22.2714 354.961 25.0772 354.961 28.0989C354.961 31.1205 354.385 33.9983 353.234 36.7322C352.083 39.3222 350.5 41.6244 348.486 43.6388C346.472 45.6532 344.097 47.236 341.364 48.3871C338.774 49.5382 335.968 50.1138 332.946 50.1138C329.924 50.1138 327.047 49.5382 324.313 48.3871C321.723 47.236 319.421 45.6532 317.406 43.6388C315.392 41.6244 313.809 39.3222 312.658 36.7322C311.507 33.9983 310.931 31.1205 310.931 28.0989Z" fill="#068C52"/>
  </g>
  <!-- Tagline -->
  <text x="600" y="490" text-anchor="middle" font-family="Georgia, serif" font-size="28" fill="#3a6b4a" opacity="0.8">Print your own custom family calendar for your fridge</text>
</svg>
